# xmcd CD database file
#
# Track frame offsets:
#	150
#	28215
#	55535
#	83245
#	106960
#	136108
#	158353
#	194847
#	229199
#
# Disc length: 3915 seconds
#
# Revision: 0
# Processed by: cddbd v1.5.2PL0 Copyright (c) Steve Scherf et al.
# Submitted via: Feurio! 1.68 - http://www.feurio.com
#
DISCID=6c0f4909
DTITLE=5 Live - In The Kitchen
DYEAR=2008
DGENRE=
TTITLE0=Little By Little
TTITLE1=How Long
TTITLE2=Days Alone
TTITLE3=Spooky
TTITLE4=New Love
TTITLE5=Drown In My Own Tears
TTITLE6=Too Through With You
TTITLE7=Get Closer
TTITLE8=Lonely Town
EXTD=
EXTT0=
EXTT1=
EXTT2=
EXTT3=
EXTT4=
EXTT5=
EXTT6=
EXTT7=
EXTT8=
PLAYORDER=
